<?xml version="1.0" encoding="UTF-8"?>
<!DOCTYPE svg PUBLIC "-//W3C//DTD SVG 1.1//EN" "http://www.w3.org/Graphics/SVG/1.1/DTD/svg11.dtd">
<!-- Creator: CorelDRAW 2017 -->
<svg xmlns="http://www.w3.org/2000/svg" xml:space="preserve" width="215.88mm" height="34.829mm" version="1.1" style="shape-rendering:geometricPrecision; text-rendering:geometricPrecision; image-rendering:optimizeQuality; fill-rule:evenodd; clip-rule:evenodd"
viewBox="0 0 21588 3482.9"
 xmlns:xlink="http://www.w3.org/1999/xlink">
 <defs>
  <style type="text/css">
   <![CDATA[
    .fil2 {fill:#666565}
    .fil0 {fill:#8C0F0F}
    .fil1 {fill:white}
    .fil3 {fill:#8C0F0F;fill-rule:nonzero}
   ]]>
  </style>
 </defs>
 <g id="Capa_x0020_1">
  <metadata id="CorelCorpID_0Corel-Layer"/>
  <path class="fil0" d="M1348.12 988.82l-680.56 0c-44.04,0 -80.07,0 -104.09,4 -28.02,4 -44.04,8.01 -56.05,12.01 -28.02,8.01 -44.04,36.03 -44.04,88.07 0,8.01 0,24.02 0,40.03 0,16.01 4,36.03 4,56.05 4,20.02 4,40.03 4,56.05 0,20.02 0,36.03 0,48.04 0,152.13 -60.05,232.19 -180.15,232.19 -116.1,0 -176.15,-64.05 -176.15,-196.16 0,-16.01 0,-32.03 0,-56.05 0,-24.02 0,-48.04 4,-72.06 4,-24.02 4,-48.04 4,-72.06 0,-24.02 0,-40.03 0,-52.04 0,-32.03 0,-64.05 0,-88.07 0,-24.02 0,-44.04 -4,-64.05 0,-16.01 0,-32.03 0,-52.04 0,-16.01 0,-32.03 0,-52.04 0,-44.04 4,-76.06 8.01,-100.08 4,-24.02 16.01,-44.04 36.03,-56.05 20.02,-12.01 44.04,-20.02 80.07,-24.02 36.03,-4 84.07,-4 144.12,-4l852.72 -0.01c16.01,0 32.03,0 56.05,0 24.02,0 48.04,0 80.07,-4 16.01,0 28.02,0 44.04,0 16.01,0 32.03,0 52.04,0 28.02,-4 56.05,-4 92.08,-4 36.03,0 72.06,0 104.09,0 176.15,0 264.22,56.05 264.22,172.14 0,64.05 -36.03,128.11 -104.09,196.16l-548.46 520.43c204.17,8.01 368.31,76.06 492.41,200.17 136.11,136.11 204.17,308.26 204.17,516.43 0,256.21 -96.08,468.39 -292.24,636.53l0 -4c-92.08,84.07 -196.16,144.12 -320.27,184.15 -120.1,40.03 -256.21,60.05 -404.34,60.05 -272.23,0 -500.42,-68.06 -680.57,-200.17 -184.15,-136.11 -280.23,-304.25 -280.23,-508.42 0,-60.05 8.01,-116.1 28.02,-172.14 20.02,-52.04 48.04,-100.08 80.07,-140.12 36.03,-40.03 76.06,-68.06 124.1,-92.08 48.04,-24.02 96.08,-36.03 152.13,-36.03 76.06,0 140.12,24.02 188.16,68.06 48.04,44.04 72.06,104.09 72.06,176.15 0,140.12 -80.07,212.18 -244.2,220.18 8.01,84.07 64.05,160.13 160.13,228.19 56.05,40.03 120.1,68.06 192.16,88.07 72.06,20.01 148.12,32.03 224.19,32.03 84.07,0 164.14,-12.01 236.2,-36.03 76.06,-24.02 140.12,-60.05 196.16,-108.09 52.04,-52.04 88.07,-108.09 120.1,-176.15 28.02,-64.05 44.04,-136.11 44.04,-216.18 0,-268.22 -152.13,-400.33 -452.38,-400.33 -76.06,0 -168.14,8.01 -272.23,28.02 -12.01,4 -24.02,4 -32.03,4 -8.01,0 -20.02,0 -36.03,0 -92.08,0 -140.12,-44.04 -140.12,-136.11 0,-40.03 24.02,-84.07 72.06,-128.11l636.53 -616.51zm1525.28 196.17c-4,-84.07 -12.01,-144.12 -24.02,-184.15 -16.01,-40.03 -40.03,-60.05 -76.06,-60.05 -4,4 -20.02,4 -40.03,4 -24.02,0 -44.04,4 -60.05,4 -20.02,4 -40.03,4 -56.05,4 -20.02,0 -36.03,0 -48.04,0 -128.11,0 -196.16,-56.05 -196.16,-168.14 0,-112.09 64.05,-168.14 188.16,-168.14 12.01,0 32.03,0 56.05,0 24.02,0 52.04,4 76.06,8.01 8.01,0 12.01,0 16.01,0 4,0 8.01,0 16.01,0 20.02,4 36.03,4 56.05,4 16.01,0 32.03,0 44.04,0 36.03,0 68.06,0 96.08,0 28.02,0 56.05,-4 80.07,-4l-0.02 0c76.06,-8.01 120.1,-12.01 140.12,-12.01 40.03,0 68.06,8.01 92.08,20.02 24.02,16.01 40.03,32.03 56.05,56.05 12.01,36.03 16.01,76.06 16.01,124.1 0,4 0,16.01 0,32.03 0,16.01 0,36.03 -4,56.05 -4,116.1 -8.01,232.19 -12.01,348.29 -4,116.1 -4,220.18 -4,320.27l0 388.32c0,40.03 0,80.07 0,124.1 0,44.04 0,100.08 4,164.14 0,28.02 0,56.05 0,80.07 0,24.02 0,44.04 0,64.05 4,28.02 4,56.05 4,84.07 0,28.02 0,48.04 0,60.05 4,128.11 40.03,192.16 100.08,192.16 12.01,0 28.02,0 48.04,0 20.02,0 40.03,-4 64.05,-4 20.02,-4 44.04,-4 64.05,-8.01 20.02,-4 40.03,-4 52.04,-4 152.13,0 228.19,56.05 228.19,168.14 0,112.09 -72.06,168.14 -212.18,168.14 -20.02,0 -44.04,0 -60.05,0 -20.02,0 -40.03,-4 -56.05,-4 -96.08,-12.01 -180.15,-20.02 -252.21,-28.02 -72.06,-8.01 -132.11,-12.01 -180.15,-12.01 -100.08,0 -220.18,12.01 -368.31,32.03 -40.03,4 -76.06,8.01 -108.09,12.01 -32.03,4 -56.05,4 -76.06,4 -140.12,0 -208.17,-56.05 -208.17,-172.14 0,-112.09 76.06,-168.14 232.19,-168.14 20.02,0 40.03,0 60.05,0 20.02,0 40.03,4 56.05,8.01 8.01,0 20.02,0 28.02,0 8.01,0 16.01,0 24.02,0 8.01,0 16.01,0 24.02,0 4,0 12.01,0 16.01,0 44.04,0 76.06,-20.02 92.08,-60.05 8.01,-32.03 12.01,-88.07 16.01,-164.14 4,-80.07 8.01,-184.15 8.01,-312.26l-11.99 -996.85z"/>
  <path class="fil1" d="M4730.95 1345.12l-156.13 0 0 -1305.09 152.12 0 460.38 868.72 48.04 128.11 4.01 0 -4 -128.11 0 -868.72 156.13 0 0 1305.09 -156.13 0 -448.37 -852.71 -64.05 -136.11 4 136.11 -0.01 852.71 4.01 0zm916.76 0l0 -132.11 288.24 0 0 -1040.87 -288.24 0 0 -132.11 744.62 0 0 132.11 -288.24 0 0 1040.87 288.24 0 0 132.11 -744.62 0zm1801.5 0c-92.08,28.02 -176.15,40.03 -252.21,40.03 -108.09,0 -204.17,-28.02 -292.24,-80.07 -84.07,-52.04 -152.13,-136.11 -200.17,-244.2 -48.04,-108.09 -72.06,-232.19 -72.06,-368.31 0,-136.11 24.02,-256.21 72.06,-364.3 48.04,-108.09 112.09,-188.16 200.17,-244.2 84.07,-56.05 180.15,-84.07 284.24,-84.07 76.06,0 164.14,20.02 264.22,56.05l0 156.13c-92.08,-52.04 -180.15,-80.07 -268.22,-80.07 -68.06,0 -128.11,24.02 -184.15,68.06 -56.05,48.04 -100.08,112.09 -136.11,204.17 -32.03,88.07 -52.04,184.15 -52.04,292.24 0,140.12 32.03,272.23 96.08,384.32 64.05,116.1 164.14,172.14 304.25,172.14 20.02,0 40.03,0 68.06,-4l-0.02 -420.35 -128.11 0 0 -132.11 300.25 0 0 648.54 -4 0zm224.19 0l0 -1305.09 168.14 0 0 560.47 484.4 0 0 -560.47 168.14 0 0 1305.09 -168.14 0 0 -612.51 -484.4 0 0 612.51 -168.14 0zm1357.13 0l0 -1160.97 -392.33 0 0 -144.12 952.8 0 0 144.12 -392.33 0 0 1160.97 -168.14 0zm736.61 -28.02l0 -160.13c136.11,64.05 256.21,96.08 368.31,96.08 44.04,0 88.07,-8.01 132.11,-28.02 44.04,-16.01 72.06,-44.04 96.08,-76.06 20.02,-32.03 32.03,-68.06 32.03,-108.09 0,-44.04 -16.01,-88.07 -44.04,-128.11 -28.03,-40.04 -84.07,-84.07 -168.14,-132.11l-84.07 -48.04 -88.07 -48.04c-152.13,-92.08 -228.19,-204.17 -228.19,-336.28 0,-100.08 36.03,-180.15 104.09,-248.21 68.06,-68.06 176.15,-100.08 320.27,-100.08 92.08,0 184.15,12.01 268.22,40.03l0 144.12c-96.08,-36.03 -188.16,-56.05 -280.23,-56.05 -72.06,0 -132.11,20.02 -176.15,56.05 -44.04,40.03 -68.06,84.07 -68.06,136.11 0,52.04 16.01,96.08 52.04,132.11 36.03,36.03 80.07,68.06 132.11,96.08l64.05 40.03 80.07 48.04 68.06 40.03c144.12,88.07 212.18,196.16 212.18,328.27 0,100.08 -36.03,188.16 -112.09,260.22 -72.06,72.06 -192.16,108.09 -352.29,108.09 -52.04,0 -100.08,-4 -148.12,-12.01 -44.05,0 -104.1,-16.01 -180.17,-44.03zm-5148.29 2109.76l0 -1821.52 236.2 0 0 784.65 672.56 0 0 -784.65 236.2 0 0 1821.52 -236.2 0 0 -856.72 -672.56 0 0 856.71 -236.2 0.01zm2013.68 56.04c-208.17,0 -364.3,-88.07 -472.39,-260.22 -108.09,-172.14 -164.14,-408.34 -164.14,-704.59 0,-296.25 56.05,-528.44 164.14,-704.59 108.09,-176.15 268.22,-260.22 472.39,-260.22 208.17,0 364.3,88.07 472.39,260.22 108.09,172.15 164.14,408.34 164.14,704.59 0,296.25 -56.05,532.44 -164.14,704.59 -108.09,172.15 -268.22,260.22 -472.39,260.22zm0 -184.15c112.09,0 208.17,-64.05 284.24,-192.16 76.06,-128.11 116.1,-324.27 116.1,-588.49 0,-264.22 -40.03,-456.38 -116.1,-588.49 -76.06,-128.11 -172.14,-196.16 -284.24,-196.16 -116.1,0 -208.17,64.05 -284.24,196.16 -76.07,132.11 -116.1,324.27 -116.1,588.49 0,264.22 40.03,460.38 116.1,588.49 76.07,128.11 168.14,192.16 284.24,192.16zm1132.95 -644.54l0 772.64 -240.21 0.01 0 -1821.52 484.41 0c160.13,0 276.23,16.01 352.29,48.04 76.06,32.03 132.11,80.07 176.15,148.12 40.03,64.05 60.05,136.11 60.05,212.18 0,72.06 -12.01,140.12 -40.03,212.18 -28.02,72.06 -64.05,136.11 -112.09,192.16 -48.04,56.05 -116.1,108.09 -208.17,160.13l528.43 848.71 -284.24 0 -480.4 -772.64 -236.19 -0.01zm0 -184.15l332.27 0c76.06,-40.03 132.11,-80.07 168.14,-124.1 36.03,-44.04 64.05,-88.07 84.07,-136.11 20.02,-48.04 28.02,-96.08 28.02,-144.12 0,-84.07 -32.03,-152.13 -92.08,-204.17 -64.05,-52.04 -176.15,-76.06 -336.28,-76.06l-184.14 -0.01 0 684.57zm1441.2 184.15l0 772.64 -240.2 0.01 0 -1821.52 484.4 0c160.13,0 276.23,16.01 352.29,48.04 76.06,32.03 132.11,80.07 176.15,148.12 40.03,64.05 60.05,136.11 60.05,212.18 0,72.06 -12.01,140.12 -40.03,212.18 -28.02,72.06 -64.05,136.11 -112.09,192.16 -48.04,56.05 -116.1,108.09 -208.17,160.13l528.43 848.71 -284.24 0 -480.4 -772.64 -236.19 -0.01zm0 -184.15l332.27 0c76.06,-40.03 132.11,-80.07 168.14,-124.1 36.03,-44.03 64.05,-88.07 84.07,-136.11 20.02,-48.04 28.02,-96.08 28.02,-144.12 0,-84.07 -32.03,-152.13 -92.08,-204.17 -64.05,-52.04 -176.15,-76.06 -336.28,-76.06l-184.14 -0.01 0 684.57zm1749.46 1012.84c-208.17,0 -364.3,-88.07 -472.39,-260.22 -108.09,-172.14 -164.14,-408.34 -164.14,-704.59 0,-296.25 56.05,-528.44 164.14,-704.59 108.09,-176.15 268.22,-260.22 472.39,-260.22 208.17,0 364.3,88.07 472.39,260.22 108.09,176.15 164.14,408.34 164.14,704.59 0,296.25 -56.05,532.44 -164.14,704.59 -108.09,172.15 -268.22,260.22 -472.39,260.22zm0 -184.15c112.09,0 208.17,-64.05 284.24,-192.16 76.06,-128.11 116.1,-324.27 116.1,-588.49 0,-264.22 -40.03,-456.38 -116.1,-588.49 -76.06,-128.11 -172.14,-196.16 -284.24,-196.16 -116.1,0 -208.17,64.05 -284.24,196.16 -76.06,128.11 -116.1,324.27 -116.1,588.49 0,264.22 40.03,460.38 116.1,588.49 72.06,128.1 168.14,192.16 284.24,192.16zm1132.94 -644.54l0 772.64 -240.2 0.01 0 -1821.52 484.4 0c160.13,0 276.23,16.01 352.29,48.04 76.06,32.03 132.11,80.07 176.15,148.12 40.03,64.05 60.05,136.11 60.05,212.18 0,72.06 -12.01,140.12 -40.03,212.18 -28.02,72.06 -64.05,136.11 -112.09,192.16 -48.04,56.05 -116.1,108.09 -208.17,160.13l528.43 848.71 -284.23 0 -480.4 -772.64 -236.2 -0.01zm0 -184.15l332.28 0c76.06,-40.03 132.11,-80.07 168.14,-124.1 36.03,-44.04 64.05,-88.07 84.07,-136.11 20.02,-48.04 28.02,-96.08 28.02,-144.12 0,-84.07 -32.03,-152.13 -92.08,-204.17 -64.05,-52.04 -176.15,-76.06 -336.28,-76.06l-184.15 -0.01 0 684.57z"/>
  <path class="fil2" d="M11596.67 1269.06c-120.1,0 -212.18,-52.04 -276.23,-152.13 -64.05,-100.08 -96.08,-240.2 -96.08,-412.34 0,-172.14 32.03,-308.26 96.08,-408.34 64.05,-100.08 156.13,-152.13 276.23,-152.13 120.1,0 212.18,52.04 276.23,152.13 64.05,100.08 96.08,240.2 96.08,408.34 0,172.14 -32.03,308.26 -96.08,412.34 -64.05,104.08 -156.13,152.13 -276.23,152.13zm0 -108.09c68.06,0 120.1,-36.03 164.14,-112.09 44.04,-76.06 68.06,-188.16 68.06,-344.29 0,-152.13 -24.02,-268.22 -68.06,-344.29 -44.04,-76.07 -100.08,-112.09 -164.14,-112.09 -68.06,0 -124.1,36.03 -168.14,112.09 -44.04,76.06 -68.06,188.16 -68.06,344.29 0,152.13 24.02,268.22 68.06,344.29 44.04,76.06 100.08,112.09 168.14,112.09zm576.48 76.06l0 -1060.89 584.49 0 0 104.09 -444.37 0 0 360.3 404.33 0 0 104.09 -404.33 0 0 488.41 -140.12 0 0 4z"/>
  <path class="fil1" d="M4732.95 1345.12l-156.13 0 0 -1305.09 152.12 0 460.38 868.72 48.04 128.11 4.01 0 -4 -128.11 0 -868.72 156.13 0 0 1305.09 -156.13 0 -448.37 -852.71 -64.05 -136.11 4 136.11 -0.01 852.71 4.01 0zm916.76 0l0 -132.11 288.24 0 0 -1040.87 -288.24 0 0 -132.11 744.62 0 0 132.11 -288.24 0 0 1040.87 288.24 0 0 132.11 -744.62 0zm1801.5 0c-92.08,28.02 -176.15,40.03 -252.21,40.03 -108.09,0 -204.17,-28.02 -292.24,-80.07 -84.07,-52.04 -152.13,-136.11 -200.17,-244.2 -48.04,-108.09 -72.06,-232.19 -72.06,-368.31 0,-136.11 24.02,-256.21 72.06,-364.3 48.04,-108.09 112.09,-188.16 200.17,-244.2 84.07,-56.05 180.15,-84.07 284.24,-84.07 76.06,0 164.14,20.02 264.22,56.05l0 156.13c-92.08,-52.04 -180.15,-80.07 -268.22,-80.07 -68.06,0 -128.11,24.02 -184.15,68.06 -56.05,48.04 -100.08,112.09 -136.11,204.17 -32.03,88.07 -52.04,184.15 -52.04,292.24 0,140.12 32.03,272.23 96.08,384.32 64.05,116.1 164.14,172.14 304.25,172.14 20.02,0 40.03,0 68.06,-4l-0.02 -420.35 -128.11 0 0 -132.11 300.25 0 0 648.54 -4 0zm224.19 0l0 -1305.09 168.14 0 0 560.47 484.4 0 0 -560.47 168.14 0 0 1305.09 -168.14 0 0 -612.51 -484.4 0 0 612.51 -168.14 0zm1357.13 0l0 -1160.97 -392.33 0 0 -144.12 952.8 0 0 144.12 -392.33 0 0 1160.97 -168.14 0zm736.61 -28.02l0 -160.13c136.11,64.05 256.21,96.08 368.31,96.08 44.04,0 88.07,-8.01 132.11,-28.02 44.04,-16.01 72.06,-44.04 96.08,-76.06 20.02,-32.03 32.03,-68.06 32.03,-108.09 0,-44.04 -16.01,-88.07 -44.04,-128.11 -28.03,-40.04 -84.07,-84.07 -168.14,-132.11l-84.07 -48.04 -88.07 -48.04c-152.13,-92.08 -228.19,-204.17 -228.19,-336.28 0,-100.08 36.03,-180.15 104.09,-248.21 68.06,-68.06 176.15,-100.08 320.27,-100.08 92.08,0 184.15,12.01 268.22,40.03l0 144.12c-96.08,-36.03 -188.16,-56.05 -280.23,-56.05 -72.06,0 -132.11,20.02 -176.15,56.05 -44.04,40.03 -68.06,84.07 -68.06,136.11 0,52.04 16.01,96.08 52.04,132.11 36.03,36.03 80.07,68.06 132.11,96.08l64.05 40.03 80.07 48.04 68.06 40.03c144.12,88.07 212.18,196.16 212.18,328.27 0,100.08 -36.03,188.16 -112.09,260.22 -72.06,72.06 -192.16,108.09 -352.29,108.09 -52.04,0 -100.08,-4 -148.12,-12.01 -44.05,0 -104.1,-16.01 -180.17,-44.03zm-5148.29 2109.76l0 -1821.52 236.2 0 0 784.65 672.56 0 0 -784.65 236.2 0 0 1821.52 -236.2 0 0 -856.72 -672.56 0 0 856.71 -236.2 0.01zm2013.68 56.04c-208.17,0 -364.3,-88.07 -472.39,-260.22 -108.09,-172.14 -164.14,-408.34 -164.14,-704.59 0,-296.25 56.05,-528.44 164.14,-704.59 108.09,-176.15 268.22,-260.22 472.39,-260.22 208.17,0 364.3,88.07 472.39,260.22 108.09,172.15 164.14,408.34 164.14,704.59 0,296.25 -56.05,532.44 -164.14,704.59 -108.09,172.15 -268.22,260.22 -472.39,260.22zm0 -184.15c112.09,0 208.17,-64.05 284.24,-192.16 76.06,-128.11 116.1,-324.27 116.1,-588.49 0,-264.22 -40.03,-456.38 -116.1,-588.49 -76.06,-128.11 -172.14,-196.16 -284.24,-196.16 -116.1,0 -208.17,64.05 -284.24,196.16 -76.07,132.11 -116.1,324.27 -116.1,588.49 0,264.22 40.03,460.38 116.1,588.49 76.07,128.11 168.14,192.16 284.24,192.16zm1132.95 -644.54l0 772.64 -240.21 0.01 0 -1821.52 484.41 0c160.13,0 276.23,16.01 352.29,48.04 76.06,32.03 132.11,80.07 176.15,148.12 40.03,64.05 60.05,136.11 60.05,212.18 0,72.06 -12.01,140.12 -40.03,212.18 -28.02,72.06 -64.05,136.11 -112.09,192.16 -48.04,56.05 -116.1,108.09 -208.17,160.13l528.43 848.71 -284.24 0 -480.4 -772.64 -236.19 -0.01zm0 -184.15l332.27 0c76.06,-40.03 132.11,-80.07 168.14,-124.1 36.03,-44.04 64.05,-88.07 84.07,-136.11 20.02,-48.04 28.02,-96.08 28.02,-144.12 0,-84.07 -32.03,-152.13 -92.08,-204.17 -64.05,-52.04 -176.15,-76.06 -336.28,-76.06l-184.14 -0.01 0 684.57zm1441.2 184.15l0 772.64 -240.2 0.01 0 -1821.52 484.4 0c160.13,0 276.23,16.01 352.29,48.04 76.06,32.03 132.11,80.07 176.15,148.12 40.03,64.05 60.05,136.11 60.05,212.18 0,72.06 -12.01,140.12 -40.03,212.18 -28.02,72.06 -64.05,136.11 -112.09,192.16 -48.04,56.05 -116.1,108.09 -208.17,160.13l528.43 848.71 -284.24 0 -480.4 -772.64 -236.19 -0.01zm0 -184.15l332.27 0c76.06,-40.03 132.11,-80.07 168.14,-124.1 36.03,-44.03 64.05,-88.07 84.07,-136.11 20.02,-48.04 28.02,-96.08 28.02,-144.12 0,-84.07 -32.03,-152.13 -92.08,-204.17 -64.05,-52.04 -176.15,-76.06 -336.28,-76.06l-184.14 -0.01 0 684.57zm1749.46 1012.84c-208.17,0 -364.3,-88.07 -472.39,-260.22 -108.09,-172.14 -164.14,-408.34 -164.14,-704.59 0,-296.25 56.05,-528.44 164.14,-704.59 108.09,-176.15 268.22,-260.22 472.39,-260.22 208.17,0 364.3,88.07 472.39,260.22 108.09,176.15 164.14,408.34 164.14,704.59 0,296.25 -56.05,532.44 -164.14,704.59 -108.09,172.15 -268.22,260.22 -472.39,260.22zm0 -184.15c112.09,0 208.17,-64.05 284.24,-192.16 76.06,-128.11 116.1,-324.27 116.1,-588.49 0,-264.22 -40.03,-456.38 -116.1,-588.49 -76.06,-128.11 -172.14,-196.16 -284.24,-196.16 -116.1,0 -208.17,64.05 -284.24,196.16 -76.06,128.11 -116.1,324.27 -116.1,588.49 0,264.22 40.03,460.38 116.1,588.49 72.06,128.1 168.14,192.16 284.24,192.16zm1132.94 -644.54l0 772.64 -240.2 0.01 0 -1821.52 484.4 0c160.13,0 276.23,16.01 352.29,48.04 76.06,32.03 132.11,80.07 176.15,148.12 40.03,64.05 60.05,136.11 60.05,212.18 0,72.06 -12.01,140.12 -40.03,212.18 -28.02,72.06 -64.05,136.11 -112.09,192.16 -48.04,56.05 -116.1,108.09 -208.17,160.13l528.43 848.71 -284.23 0 -480.4 -772.64 -236.2 -0.01zm0 -184.15l332.28 0c76.06,-40.03 132.11,-80.07 168.14,-124.1 36.03,-44.04 64.05,-88.07 84.07,-136.11 20.02,-48.04 28.02,-96.08 28.02,-144.12 0,-84.07 -32.03,-152.13 -92.08,-204.17 -64.05,-52.04 -176.15,-76.06 -336.28,-76.06l-184.15 -0.01 0 684.57z"/>
  <path class="fil2" d="M11598.67 1269.06c-120.1,0 -212.18,-52.04 -276.23,-152.13 -64.05,-100.08 -96.08,-240.2 -96.08,-412.34 0,-172.14 32.03,-308.26 96.08,-408.34 64.05,-100.08 156.13,-152.13 276.23,-152.13 120.1,0 212.18,52.04 276.23,152.13 64.05,100.08 96.08,240.2 96.08,408.34 0,172.14 -32.03,308.26 -96.08,412.34 -64.05,104.08 -156.13,152.13 -276.23,152.13zm0 -108.09c68.06,0 120.1,-36.03 164.14,-112.09 44.04,-76.06 68.06,-188.16 68.06,-344.29 0,-152.13 -24.02,-268.22 -68.06,-344.29 -44.04,-76.07 -100.08,-112.09 -164.14,-112.09 -68.06,0 -124.1,36.03 -168.14,112.09 -44.04,76.06 -68.06,188.16 -68.06,344.29 0,152.13 24.02,268.22 68.06,344.29 44.04,76.06 100.08,112.09 168.14,112.09zm576.48 76.06l0 -1060.89 584.49 0 0 104.09 -444.37 0 0 360.3 404.33 0 0 104.09 -404.33 0 0 488.41 -140.12 0 0 4z"/>
  <path class="fil3" d="M14212.66 1316.87l-381.87 0c-1.36,-12.18 -2.03,-25.72 -2.71,-40.62 -0.68,-14.9 -1.36,-36.56 -1.36,-64.32 0,-252.55 65.68,-446.2 196.36,-581.61 131.35,-135.42 318.9,-203.13 564,-203.13 248.49,0 445.52,67.03 590.42,201.09 144.89,134.07 217.34,316.2 217.34,546.41 0,292.5 -202.45,633.07 -607.34,1023.07l-37.24 37.91c-209.22,202.45 -351.4,350.05 -427.91,443.49 -75.84,92.76 -125.94,174.01 -149.64,242.39l35.89 31.83c77.86,-38.6 169.27,-67.03 274.21,-85.32 104.95,-18.28 223.44,-27.76 355.47,-27.76l552.5 0 0 353.44 -1572.18 0c-0.68,-10.83 -2.03,-22.34 -2.71,-35.89 -0.68,-12.86 -0.68,-32.5 -0.68,-57.55 0,-138.8 31.83,-270.15 96.15,-394.06 64.32,-123.23 195.67,-286.4 394.06,-488.85 294.53,-296.56 484.11,-515.93 568.75,-659.48 84.63,-143.54 126.61,-285.05 126.61,-423.85 0,-127.97 -35.21,-230.2 -104.95,-305.36 -69.74,-75.16 -163.85,-113.07 -280.99,-113.07 -142.86,0 -243.74,43.33 -303.33,130.67 -58.9,87.35 -92.08,244.43 -98.85,470.57zm2413.11 -593.12c-163.85,0 -280.31,71.1 -348.69,213.96 -68.39,142.86 -102.24,395.41 -102.24,756.3 0,312.13 4.06,527.44 12.18,645.26 7.45,117.81 20.99,215.31 39.28,293.17 23.02,94.11 73.12,171.98 150.98,233.59 78.55,61.62 165.21,92.09 260.68,92.09 168.59,0 287.76,-71.1 357.5,-213.28 70.41,-142.19 105.62,-400.16 105.62,-773.23 0,-552.5 -33.85,-899.16 -101.56,-1038.64 -67.71,-139.48 -191.61,-209.22 -373.75,-209.22zm-832.81 1023.75c0,-440.1 70.42,-769.84 210.58,-989.89 140.15,-220.05 350.05,-330.42 630.36,-330.42 292.5,0 507.13,113.75 643.9,341.25 136.77,226.82 205.16,585.67 205.16,1076.56 0,496.97 -67.04,855.15 -201.1,1075.2 -134.74,220.05 -351.4,330.41 -652.02,330.41 -299.95,0 -514.59,-113.74 -643.23,-341.24 -129.32,-226.83 -193.65,-614.12 -193.65,-1161.87zm2482.18 -430.63l-381.87 0c-1.36,-12.18 -2.03,-25.72 -2.71,-40.62 -0.68,-14.9 -1.36,-36.56 -1.36,-64.32 0,-252.55 65.68,-446.2 196.36,-581.61 131.35,-135.42 318.9,-203.13 564,-203.13 248.48,0 445.51,67.03 590.41,201.09 144.89,134.07 217.34,316.2 217.34,546.41 0,292.5 -202.45,633.07 -607.33,1023.07l-37.24 37.91c-209.22,202.45 -351.4,350.05 -427.91,443.49 -75.84,92.76 -125.94,174.01 -149.64,242.39l35.89 31.83c77.86,-38.6 169.27,-67.03 274.21,-85.32 104.95,-18.28 223.44,-27.76 355.46,-27.76l552.5 0 0 353.44 -1572.17 0c-0.68,-10.83 -2.03,-22.34 -2.71,-35.89 -0.68,-12.86 -0.68,-32.5 -0.68,-57.55 0,-138.8 31.83,-270.15 96.15,-394.06 64.32,-123.23 195.67,-286.4 394.06,-488.85 294.53,-296.56 484.11,-515.93 568.74,-659.48 84.63,-143.54 126.61,-285.05 126.61,-423.85 0,-127.97 -35.21,-230.2 -104.95,-305.36 -69.74,-75.16 -163.84,-113.07 -280.98,-113.07 -142.86,0 -243.74,43.33 -303.33,130.67 -58.9,87.35 -92.08,244.43 -98.85,470.57zm1637.17 1588.43l633.75 0 0 -2112.49 -633.75 0 0 -308.74 1027.81 0 0 2421.23 548.43 0 0 288.44 -1576.24 0 0 -288.44z"/>
 </g>
</svg>
